<svg width="43" height="43" viewBox="0 0 43 43" fill="none" xmlns="http://www.w3.org/2000/svg">
<path d="M10.0333 28.6667V15.7667C10.0358 14.9762 10.6762 14.3358 11.4667 14.3333H35.8333V2.15001C35.8309 1.35951 35.1905 0.719124 34.4 0.716675H12.1833V7.88334C12.1833 8.67489 11.5416 9.31667 10.75 9.31667H2.86667V40.85C2.86912 41.6405 3.5095 42.2809 4.30001 42.2833H34.4C35.1905 42.2809 35.8309 41.6405 35.8333 40.85V30.1H11.4667C10.6762 30.0976 10.0358 29.4572 10.0333 28.6667Z" fill="#9BC9FF"/>
<path d="M38.7 13.6167H36.55V2.15C36.55 0.962671 35.5873 0 34.4 0H12.1833C12.1683 0 12.1554 0.0069987 12.1403 0.00804851C12.0826 0.0118977 12.0252 0.0227457 11.9699 0.0402425C11.9468 0.0461914 11.9244 0.0531901 11.9023 0.0615885C11.8271 0.0923828 11.7578 0.136125 11.6973 0.190714L2.38062 8.79071C2.31658 8.85195 2.26479 8.92474 2.22805 9.00557C2.21755 9.02902 2.20845 9.05282 2.20075 9.07731C2.17731 9.1417 2.16331 9.20959 2.15946 9.27782C2.15946 9.29287 2.15001 9.30652 2.15001 9.32157V40.85C2.15001 42.0373 3.11268 43 4.30001 43H34.4C35.5873 43 36.55 42.0373 36.55 40.85V30.8167H38.7C39.8873 30.8167 40.85 29.854 40.85 28.6667V15.7667C40.85 14.5793 39.8873 13.6167 38.7 13.6167ZM11.4667 2.35366V7.88333C11.4667 8.27911 11.1458 8.6 10.75 8.6H4.69999L11.4667 2.35366ZM35.1167 40.85C35.1167 41.2458 34.7958 41.5667 34.4 41.5667H4.30001C3.90424 41.5667 3.58335 41.2458 3.58335 40.85V10.0333H10.75C11.9373 10.0333 12.9 9.07066 12.9 7.88333V1.43333H34.4C34.7958 1.43333 35.1167 1.75422 35.1167 2.15V13.6167H11.4667C10.2794 13.6167 9.31668 14.5793 9.31668 15.7667V28.6667C9.31668 29.854 10.2794 30.8167 11.4667 30.8167H35.1167V40.85ZM39.4167 28.6667C39.4167 29.0624 39.0958 29.3833 38.7 29.3833H11.4667C11.0709 29.3833 10.75 29.0624 10.75 28.6667V15.7667C10.75 15.3709 11.0709 15.05 11.4667 15.05H38.7C39.0958 15.05 39.4167 15.3709 39.4167 15.7667V28.6667Z" fill="#1E81CE"/>
<path d="M17.9167 17.2001H13.6167C13.2209 17.2001 12.9 17.521 12.9 17.9167V26.5167C12.9 26.9125 13.2209 27.2334 13.6167 27.2334C14.0125 27.2334 14.3333 26.9125 14.3333 26.5167V22.9334H17.9167C19.104 22.9334 20.0667 21.9707 20.0667 20.7834V19.3501C20.0667 18.1627 19.104 17.2001 17.9167 17.2001ZM18.6333 20.7834C18.6333 21.1792 18.3125 21.5001 17.9167 21.5001H14.3333V18.6334H17.9167C18.3125 18.6334 18.6333 18.9543 18.6333 19.3501V20.7834Z" fill="#1E81CE"/>
<path d="M25.0833 17.2001H22.2167C21.8209 17.2001 21.5 17.521 21.5 17.9167V26.5167C21.5 26.9125 21.8209 27.2334 22.2167 27.2334H25.0833C27.0615 27.231 28.6642 25.6283 28.6667 23.6501V20.7834C28.6642 18.8052 27.0615 17.2025 25.0833 17.2001ZM27.2333 23.6501C27.2333 24.8374 26.2707 25.8001 25.0833 25.8001H22.9333V18.6334H25.0833C26.2707 18.6334 27.2333 19.5961 27.2333 20.7834V23.6501Z" fill="#1E81CE"/>
<path d="M36.55 17.2001H30.8167C30.4209 17.2001 30.1 17.521 30.1 17.9167V26.5167C30.1 26.9125 30.4209 27.2334 30.8167 27.2334C31.2125 27.2334 31.5334 26.9125 31.5334 26.5167V22.9334H35.1167C35.5125 22.9334 35.8334 22.6125 35.8334 22.2167C35.8334 21.821 35.5125 21.5001 35.1167 21.5001H31.5334V18.6334H36.55C36.9458 18.6334 37.2667 18.3125 37.2667 17.9167C37.2667 17.521 36.9458 17.2001 36.55 17.2001Z" fill="#1E81CE"/>
</svg>
